<svg width="26" height="28" viewBox="0 0 26 28" fill="none" xmlns="http://www.w3.org/2000/svg">
<g opacity="0.4">
<path d="M20.2494 4.37933H5.19441C3.8958 4.37933 2.83931 5.50344 2.83931 6.88515V16.2995C2.83931 17.6812 3.8958 18.8053 5.19441 18.8053H6.44899V22.3416C6.44899 22.646 6.77915 22.7865 6.97724 22.5758L10.785 18.8053H20.2714C21.5701 18.8053 22.6265 17.6812 22.6265 16.2995V6.88515C22.6045 5.50344 21.548 4.37933 20.2494 4.37933ZM14.8789 14.871C14.8789 15.0583 14.7249 15.2223 14.5488 15.2223H6.69111C6.51503 15.2223 6.36095 15.0583 6.36095 14.871V14.707C6.36095 14.5197 6.51503 14.3558 6.69111 14.3558H14.5488C14.7249 14.3558 14.8789 14.5197 14.8789 14.707V14.871ZM18.6867 12.2246H6.77915C6.55904 12.2246 6.36095 12.0373 6.36095 11.7797C6.36095 11.5221 6.53703 11.3347 6.77915 11.3347H18.6867C18.9068 11.3347 19.1049 11.5221 19.1049 11.7797C19.1049 12.0373 18.9068 12.2246 18.6867 12.2246ZM18.6867 9.22703H6.77915C6.55904 9.22703 6.36095 9.03968 6.36095 8.78207C6.36095 8.52447 6.53703 8.33712 6.77915 8.33712H18.6867C18.9068 8.33712 19.1049 8.52447 19.1049 8.78207C19.1049 9.03968 18.9068 9.22703 18.6867 9.22703Z" fill="#788292"/>
</g>
</svg>
