<svg width="26" height="28" viewBox="0 0 26 28" fill="none" xmlns="http://www.w3.org/2000/svg">
<g opacity="0.4">
<path d="M18.6647 17.6578C17.8724 17.6578 17.146 18.0091 16.6178 18.5477L9.70654 13.7703C9.70654 13.7 9.70654 13.6063 9.70654 13.5361C9.70654 13.4658 9.70654 13.419 9.70654 13.3487L16.7718 8.66497C17.2781 9.13334 17.9604 9.41437 18.6867 9.41437C20.3155 9.41437 21.6361 8.00924 21.6361 6.27625C21.6361 4.54325 20.3155 3.13812 18.6867 3.13812C17.058 3.13812 15.7374 4.54325 15.7374 6.27625C15.7374 6.53385 15.7594 6.76804 15.8254 7.00223L9.02422 11.5221C8.47396 10.8429 7.68159 10.398 6.77917 10.398C5.15041 10.398 3.8298 11.8031 3.8298 13.5361C3.8298 15.2691 5.15041 16.6742 6.77917 16.6742C7.65958 16.6742 8.45195 16.2527 9.00221 15.5969L15.7814 20.3041C15.7594 20.4681 15.7374 20.632 15.7374 20.8193C15.7374 22.5523 17.058 23.9575 18.6867 23.9575C20.3155 23.9575 21.6361 22.5523 21.6361 20.8193C21.6141 19.0629 20.2935 17.6578 18.6647 17.6578Z" fill="#788292"/>
</g>
</svg>
