<svg width="26" height="28" viewBox="0 0 26 28" fill="none" xmlns="http://www.w3.org/2000/svg">
<g opacity="0.4">
<path d="M15.4732 11.1005C15.4732 11.1005 16.8599 9.29726 16.7278 6.74461C16.5737 4.16854 15.4072 3.77042 14.6809 3.8641C13.9545 3.93435 13.8665 6.90854 13.8665 6.90854C13.8665 6.90854 10.4329 9.27385 10.1247 13.5595C9.81659 17.8451 10.1247 22.1542 10.1247 22.1542H19.6112C19.6332 22.1542 19.6552 22.1542 19.6772 22.1542C20.4916 22.1542 21.7241 21.4048 20.7777 19.7889C21.8122 18.9927 21.394 17.4002 20.9538 16.9318C21.7462 16.4634 21.9663 14.8241 20.9538 14.0513C21.9883 13.0443 21.9222 11.4986 20.6897 11.1005C19.4351 10.7024 15.4732 11.1005 15.4732 11.1005Z" fill="#788292"/>
<path d="M8.51799 23.2315H3.98387C3.87382 23.2315 3.76377 23.1378 3.76377 22.9973V13.2316C3.76377 13.0911 3.87382 12.9974 3.98387 12.9974H8.51799C8.62804 12.9974 8.73809 13.0911 8.73809 13.2316V22.9739C8.73809 23.1144 8.65005 23.2315 8.51799 23.2315Z" fill="#788292"/>
</g>
</svg>
